<svg xmlns="http://www.w3.org/2000/svg" xmlns:xlink="http://www.w3.org/1999/xlink" width="1800" height="433.26" viewBox="0 0 1800 433.26">
  <defs>
    <linearGradient id="linear-gradient" x1="0.31" y1="0.484" x2="1.355" y2="0.779" gradientUnits="objectBoundingBox">
      <stop offset="0" stop-color="#14abd9"/>
      <stop offset="1" stop-color="#14abd9"/>
    </linearGradient>
    <linearGradient id="linear-gradient-2" x1="0.099" y1="-0.035" x2="1.142" y2="1.356" xlink:href="#linear-gradient"/>
    <linearGradient id="linear-gradient-3" x1="-0.134" y1="0.342" x2="1.401" y2="0.865" xlink:href="#linear-gradient"/>
    <linearGradient id="linear-gradient-4" x1="0.049" y1="0.32" x2="1.182" y2="0.773" xlink:href="#linear-gradient"/>
  </defs>
  <g id="agq_logo_white_bg" transform="translate(-102.5 -396.37)">
    <path id="Path_446" data-name="Path 446" d="M142.86,644.31H102.5l92.86-183.42h44.2l37.17,183.42H235.09L229,606.51H161.3Zm33.4-69.48H223l-11.87-72.56h-.51Z" fill="#031528"/>
    <path id="Path_447" data-name="Path 447" d="M451.37,580.19c-7.23,48.28-39.45,69-85.69,69-16.86,0-41.28-4.09-54.92-22.23-8.28-11.24-9.89-26.06-7.65-44.45l18.21-121.6h39.09L342.58,579.94c-3.82,25.54,9.31,36.78,27.2,36.78,26.31,0,39-12.77,42.28-35l18.09-120.83h39.09Z" fill="#031528"/>
    <path id="Path_448" data-name="Path 448" d="M563.64,644.31H525.32l22.61-151H492.49l4.86-32.44H646.54l-4.86,32.44H586.25Z" fill="#031528"/>
    <path id="Path_449" data-name="Path 449" d="M746.14,456c24.27,0,86.57,10.48,73.68,96.57s-78.33,96.57-102.6,96.57-86.56-10.48-73.67-96.57S721.87,456,746.14,456ZM722.08,616.72c20.69,0,51.73-12.77,59.42-64.12s-19.5-64.12-40.22-64.12-51.72,12.77-59.41,64.12S701.39,616.72,722.08,616.72Z" fill="#031528"/>
    <path id="Path_450" data-name="Path 450" d="M1348.63,488.22h-.52l-41.46,80.73h56.97Z" fill="url(#linear-gradient)"/>
    <path id="Path_451" data-name="Path 451" d="M859.72,543.94l-23,153.66h960.1l45.1-301.23h-807C950.35,396.37,871.93,462.44,859.72,543.94ZM1614.4,585h23.24c-5,33.22,20.65,42.92,44.16,42.92,17.88,0,48.71-4.59,52.65-30.91,2.87-19.16-5.15-25.29-34.23-32.44L1664,555.92c-11.58-2.81-37.4-11.24-32.62-43.17,4.28-28.61,27.14-56.71,71.59-56.71,64.12,0,64.77,38.32,62.77,58.5H1742.5c3-28.36-19.2-37.3-39.89-37.3-15.59,0-42.55,4.34-46.72,32.19-2.33,15.58,7.89,20.69,18.24,23.25l50.57,12c22.92,5.62,38.66,19.93,34.3,49.05-6.51,43.43-48.67,55.44-80.09,55.44-34,0-45.73-10.22-52.8-17.63C1612.6,617.49,1611.83,602.16,1614.4,585Zm-176.79,0h23.24c-5,33.22,20.65,42.92,44.16,42.92,17.88,0,48.71-4.59,52.65-30.91,2.87-19.16-5.15-25.29-34.23-32.44l-36.25-8.69c-11.59-2.81-37.4-11.24-32.62-43.17,4.28-28.61,27.14-56.71,71.59-56.71,64.12,0,64.77,38.32,62.77,58.5h-23.24c3-28.36-19.2-37.3-39.89-37.3-15.59,0-42.55,4.34-46.72,32.19-2.33,15.58,7.89,20.69,18.24,23.25l50.57,12c22.92,5.62,38.66,19.93,34.29,49.05-6.5,43.43-48.66,55.44-80.08,55.44-34,0-45.73-10.22-52.8-17.63C1435.81,617.49,1435,602.16,1437.61,585Zm-98.18-124.15h28.11l39,183.42h-27.08l-10.14-53.39h-73.58l-27.15,53.39H1243Zm-201.57,0h24.78L1138.47,622.3h93l-3.29,22H1110.4Zm-56.12,55.69h-24c-3.13-31.93-29-38.57-49.15-38.57-33,0-64,26.31-71.16,74.34-5.59,37.29.94,75.61,49.73,75.61,9.2,0,24.17-1,39.31-11.75,18-12.77,24.55-29.12,27.49-48.79H996.72l3.17-21.2h80.47l-14.68,98.09h-16.1l-2.32-23.76c-15.12,17.38-39.79,28.62-64.83,28.62-31.42,0-45-11.5-53.1-20.7-24.12-26.56-20.19-58-17.28-77.4,6.7-44.71,41.31-95,101.09-95,34.23-.03,69.39,19.42,68.6,60.55Z" fill="url(#linear-gradient-2)"/>
    <path id="Path_452" data-name="Path 452" d="M1888.25,425.56c0-5.58-3.33-8.51-9.89-8.51H1866.6v26.39h5.51V434.1h4.9l5.59,9.35h6.48l-6.64-9.79C1886.29,432.58,1888.25,429.93,1888.25,425.56Zm-10.11,3.86h-6V422h6c3,0,4.52,1.28,4.53,3.77s-1.51,3.64-4.53,3.65Z" fill="url(#linear-gradient-3)"/>
    <path id="Path_453" data-name="Path 453" d="M1876.69,404.46c-14.78,0-25.78,11-25.76,25.81s11,25.78,25.81,25.77,25.78-11,25.76-25.82S1891.47,404.45,1876.69,404.46Zm0,46.75c-11.76,0-20.59-8.8-20.6-20.94s8.8-21,20.56-21,20.52,8.8,20.53,20.94-8.76,20.99-20.45,21Z" fill="url(#linear-gradient-4)"/>
    <path id="Path_454" data-name="Path 454" d="M636.58,791.87v-8.76q0-18.66,10-27.76t27.48-9.11q17.48,0,27.59,9.11t10.11,27.76v8.76q0,13.61-7.53,22.7l7.76,6.52-7.64,8.54-8.66-7.08q-8.88,5.4-21.58,5.4-17.52,0-27.53-10.12T636.58,791.87Zm56.08,0v-8.76q0-11.91-4.39-16.64t-14.16-4.72q-9.76,0-14.16,4.72t-4.38,16.64v8.76q0,9.9,4.78,15.23t13.76,5.34a17.419,17.419,0,0,0,7.65-1.58l-8.32-7,7.76-8.66,8.2,7q3.26-3.92,3.26-10.33Z" fill="#031528"/>
    <path id="Path_455" data-name="Path 455" d="M843.47,746.81h19.11v49q0,13.82-9.05,22.64T829,827.27q-15.3,0-24.34-8.88t-9-22.58v-49h19v49q0,7.76,3.71,11.8t10.68,4q7.18,0,10.84-4t3.65-11.8Z" fill="#031528"/>
    <path id="Path_456" data-name="Path 456" d="M945.63,790.86v-8.65q0-18.66,10.06-27.82t27.53-9.16q17.47,0,27.54,9.16t10,27.82v8.65q0,16-10,26.07t-27.65,10.12q-17.42,0-27.47-10.12T945.63,790.86Zm56.19,0v-8.65q0-12-4.38-16.69t-14.28-4.67q-9.66,0-14,4.67t-4.39,16.69v8.65q0,9.89,4.78,15.23t13.65,5.34q9.23,0,13.94-5.29T1001.82,790.86Z" fill="#031528"/>
    <path id="Path_457" data-name="Path 457" d="M1098.69,746.81H1166v15.62h-24.5v63h-19.1v-63h-23.71Z" fill="#031528"/>
    <path id="Path_458" data-name="Path 458" d="M1247.49,746.81h59.9v15.62h-40.8V777h39.22v15.62h-39.22v17.19h41.25v15.62h-60.35Z" fill="#031528"/>
  </g>
</svg>
